<?xml version="1.0" encoding="utf-8"?>
<svg viewBox="0 0 401.694 1763.161" xmlns="http://www.w3.org/2000/svg">
  <g id="svgg" style="" transform="matrix(1, 0, 0, 1.1926599740982056, 0, 0)">
    <path id="path0" d="M184.615 123.077 L 184.615 153.846 169.231 153.846 L 153.846 153.846 153.846 169.231 L 153.846 184.615 138.462 184.615 L 123.077 184.615 123.077 230.769 L 123.077 276.923 107.692 276.923 L 92.308 276.923 92.308 292.308 L 92.308 307.692 76.923 307.692 L 61.538 307.692 61.538 353.846 L 61.538 400.000 76.923 400.000 L 92.308 400.000 92.308 384.615 L 92.308 369.231 107.692 369.231 L 123.077 369.231 123.077 353.846 L 123.077 338.462 138.462 338.462 L 153.846 338.462 153.846 323.077 L 153.846 307.692 169.231 307.692 L 184.615 307.692 184.615 292.308 L 184.615 276.923 200.000 276.923 L 215.385 276.923 215.385 292.308 L 215.385 307.692 230.769 307.692 L 246.154 307.692 246.154 323.077 L 246.154 338.462 261.538 338.462 L 276.923 338.462 276.923 353.846 L 276.923 369.231 292.308 369.231 L 307.692 369.231 307.692 384.615 L 307.692 400.000 323.077 400.000 L 338.462 400.000 338.462 353.846 L 338.462 307.692 323.077 307.692 L 307.692 307.692 307.692 292.308 L 307.692 276.923 292.308 276.923 L 276.923 276.923 276.923 230.769 L 276.923 184.615 261.538 184.615 L 246.154 184.615 246.154 169.231 L 246.154 153.846 230.769 153.846 L 215.385 153.846 215.385 123.077 L 215.385 92.308 200.000 92.308 L 184.615 92.308 184.615 123.077 M215.385 200.000 L 215.385 215.385 230.769 215.385 L 246.154 215.385 246.154 230.769 L 246.154 246.154 230.769 246.154 L 215.385 246.154 215.385 230.769 L 215.385 215.385 200.000 215.385 L 184.615 215.385 184.615 230.769 L 184.615 246.154 169.231 246.154 L 153.846 246.154 153.846 230.769 L 153.846 215.385 169.231 215.385 L 184.615 215.385 184.615 200.000 L 184.615 184.615 200.000 184.615 L 215.385 184.615 215.385 200.000 M153.846 384.615 L 153.846 400.000 138.462 400.000 L 123.077 400.000 123.077 430.769 L 123.077 461.538 107.692 461.538 L 92.308 461.538 92.308 492.308 L 92.308 523.077 76.923 523.077 L 61.538 523.077 61.538 584.615 L 61.538 646.154 46.154 646.154 L 30.769 646.154 30.769 846.154 L 30.769 1046.154 46.154 1046.154 L 61.538 1046.154 61.538 1107.692 L 61.538 1169.231 76.923 1169.231 L 92.308 1169.231 92.308 1200.000 L 92.308 1230.769 107.692 1230.769 L 123.077 1230.769 123.077 1261.538 L 123.077 1292.308 138.462 1292.308 L 153.846 1292.308 153.846 1307.692 L 153.846 1323.077 200.000 1323.077 L 246.154 1323.077 246.154 1307.692 L 246.154 1292.308 261.538 1292.308 L 276.923 1292.308 276.923 1261.538 L 276.923 1230.769 292.308 1230.769 L 307.692 1230.769 307.692 1200.000 L 307.692 1169.231 323.077 1169.231 L 338.462 1169.231 338.462 1107.692 L 338.462 1046.154 353.846 1046.154 L 369.231 1046.154 369.231 846.154 L 369.231 646.154 353.846 646.154 L 338.462 646.154 338.462 584.615 L 338.462 523.077 323.077 523.077 L 307.692 523.077 307.692 492.308 L 307.692 461.538 292.308 461.538 L 276.923 461.538 276.923 430.769 L 276.923 400.000 261.538 400.000 L 246.154 400.000 246.154 384.615 L 246.154 369.231 200.000 369.231 L 153.846 369.231 153.846 384.615 M246.154 430.769 L 246.154 461.538 261.538 461.538 L 276.923 461.538 276.923 492.308 L 276.923 523.077 292.308 523.077 L 307.692 523.077 307.692 538.462 L 307.692 553.846 292.308 553.846 L 276.923 553.846 276.923 538.462 L 276.923 523.077 200.000 523.077 L 123.077 523.077 123.077 538.462 L 123.077 553.846 107.692 553.846 L 92.308 553.846 92.308 538.462 L 92.308 523.077 107.692 523.077 L 123.077 523.077 123.077 492.308 L 123.077 461.538 138.462 461.538 L 153.846 461.538 153.846 430.769 L 153.846 400.000 200.000 400.000 L 246.154 400.000 246.154 430.769 M215.385 584.615 L 215.385 615.385 246.154 615.385 L 276.923 615.385 276.923 630.769 L 276.923 646.154 246.154 646.154 L 215.385 646.154 215.385 692.308 L 215.385 738.462 246.154 738.462 L 276.923 738.462 276.923 753.846 L 276.923 769.231 246.154 769.231 L 215.385 769.231 215.385 830.769 L 215.385 892.308 200.000 892.308 L 184.615 892.308 184.615 830.769 L 184.615 769.231 153.846 769.231 L 123.077 769.231 123.077 753.846 L 123.077 738.462 153.846 738.462 L 184.615 738.462 184.615 692.308 L 184.615 646.154 153.846 646.154 L 123.077 646.154 123.077 630.769 L 123.077 615.385 153.846 615.385 L 184.615 615.385 184.615 584.615 L 184.615 553.846 200.000 553.846 L 215.385 553.846 215.385 584.615 M92.308 738.462 L 92.308 830.769 107.692 830.769 L 123.077 830.769 123.077 876.923 L 123.077 923.077 200.000 923.077 L 276.923 923.077 276.923 876.923 L 276.923 830.769 292.308 830.769 L 307.692 830.769 307.692 738.462 L 307.692 646.154 323.077 646.154 L 338.462 646.154 338.462 846.154 L 338.462 1046.154 323.077 1046.154 L 307.692 1046.154 307.692 1107.692 L 307.692 1169.231 292.308 1169.231 L 276.923 1169.231 276.923 1200.000 L 276.923 1230.769 261.538 1230.769 L 246.154 1230.769 246.154 1200.000 L 246.154 1169.231 230.769 1169.231 L 215.385 1169.231 215.385 1215.385 L 215.385 1261.538 230.769 1261.538 L 246.154 1261.538 246.154 1276.923 L 246.154 1292.308 230.769 1292.308 L 215.385 1292.308 215.385 1276.923 L 215.385 1261.538 200.000 1261.538 L 184.615 1261.538 184.615 1276.923 L 184.615 1292.308 169.231 1292.308 L 153.846 1292.308 153.846 1276.923 L 153.846 1261.538 169.231 1261.538 L 184.615 1261.538 184.615 1215.385 L 184.615 1169.231 169.231 1169.231 L 153.846 1169.231 153.846 1200.000 L 153.846 1230.769 138.462 1230.769 L 123.077 1230.769 123.077 1200.000 L 123.077 1169.231 107.692 1169.231 L 92.308 1169.231 92.308 1107.692 L 92.308 1046.154 76.923 1046.154 L 61.538 1046.154 61.538 846.154 L 61.538 646.154 76.923 646.154 L 92.308 646.154 92.308 738.462 M184.615 1153.846 L 184.615 1169.231 200.000 1169.231 L 215.385 1169.231 215.385 1153.846 L 215.385 1138.462 200.000 1138.462 L 184.615 1138.462 184.615 1153.846 M123.077 1369.231 L 123.077 1384.615 107.692 1384.615 L 92.308 1384.615 92.308 1400.000 L 92.308 1415.385 107.692 1415.385 L 123.077 1415.385 123.077 1430.769 L 123.077 1446.154 200.000 1446.154 L 276.923 1446.154 276.923 1430.769 L 276.923 1415.385 292.308 1415.385 L 307.692 1415.385 307.692 1400.000 L 307.692 1384.615 292.308 1384.615 L 276.923 1384.615 276.923 1369.231 L 276.923 1353.846 200.000 1353.846 L 123.077 1353.846 123.077 1369.231 M276.923 1400.000 L 276.923 1415.385 200.000 1415.385 L 123.077 1415.385 123.077 1400.000 L 123.077 1384.615 200.000 1384.615 L 276.923 1384.615 276.923 1400.000 " stroke="none" fill="#dcdcdc" fill-rule="evenodd"/>
    <path id="path1" d="M184.615 15.385 L 184.615 30.769 169.231 30.769 L 153.846 30.769 153.846 61.538 L 153.846 92.308 138.462 92.308 L 123.077 92.308 123.077 107.692 L 123.077 123.077 107.692 123.077 L 92.308 123.077 92.308 153.846 L 92.308 184.615 76.923 184.615 L 61.538 184.615 61.538 215.385 L 61.538 246.154 46.154 246.154 L 30.769 246.154 30.769 276.923 L 30.769 307.692 15.385 307.692 L 0.000 307.692 0.000 815.385 L 0.000 1323.077 15.385 1323.077 L 30.769 1323.077 30.769 1384.615 L 30.769 1446.154 46.154 1446.154 L 61.538 1446.154 61.538 1461.538 L 61.538 1476.923 200.000 1476.923 L 338.462 1476.923 338.462 1461.538 L 338.462 1446.154 353.846 1446.154 L 369.231 1446.154 369.231 1384.615 L 369.231 1323.077 384.615 1323.077 L 400.000 1323.077 400.000 815.385 L 400.000 307.692 384.615 307.692 L 369.231 307.692 369.231 276.923 L 369.231 246.154 353.846 246.154 L 338.462 246.154 338.462 215.385 L 338.462 184.615 323.077 184.615 L 307.692 184.615 307.692 153.846 L 307.692 123.077 292.308 123.077 L 276.923 123.077 276.923 107.692 L 276.923 92.308 261.538 92.308 L 246.154 92.308 246.154 61.538 L 246.154 30.769 230.769 30.769 L 215.385 30.769 215.385 15.385 L 215.385 0.000 200.000 0.000 L 184.615 0.000 184.615 15.385 M215.385 123.077 L 215.385 153.846 230.769 153.846 L 246.154 153.846 246.154 169.231 L 246.154 184.615 261.538 184.615 L 276.923 184.615 276.923 230.769 L 276.923 276.923 292.308 276.923 L 307.692 276.923 307.692 292.308 L 307.692 307.692 323.077 307.692 L 338.462 307.692 338.462 353.846 L 338.462 400.000 323.077 400.000 L 307.692 400.000 307.692 384.615 L 307.692 369.231 292.308 369.231 L 276.923 369.231 276.923 353.846 L 276.923 338.462 261.538 338.462 L 246.154 338.462 246.154 323.077 L 246.154 307.692 230.769 307.692 L 215.385 307.692 215.385 292.308 L 215.385 276.923 200.000 276.923 L 184.615 276.923 184.615 292.308 L 184.615 307.692 169.231 307.692 L 153.846 307.692 153.846 323.077 L 153.846 338.462 138.462 338.462 L 123.077 338.462 123.077 353.846 L 123.077 369.231 107.692 369.231 L 92.308 369.231 92.308 384.615 L 92.308 400.000 76.923 400.000 L 61.538 400.000 61.538 353.846 L 61.538 307.692 76.923 307.692 L 92.308 307.692 92.308 292.308 L 92.308 276.923 107.692 276.923 L 123.077 276.923 123.077 230.769 L 123.077 184.615 138.462 184.615 L 153.846 184.615 153.846 169.231 L 153.846 153.846 169.231 153.846 L 184.615 153.846 184.615 123.077 L 184.615 92.308 200.000 92.308 L 215.385 92.308 215.385 123.077 M184.615 200.000 L 184.615 215.385 169.231 215.385 L 153.846 215.385 153.846 230.769 L 153.846 246.154 169.231 246.154 L 184.615 246.154 184.615 230.769 L 184.615 215.385 200.000 215.385 L 215.385 215.385 215.385 230.769 L 215.385 246.154 230.769 246.154 L 246.154 246.154 246.154 230.769 L 246.154 215.385 230.769 215.385 L 215.385 215.385 215.385 200.000 L 215.385 184.615 200.000 184.615 L 184.615 184.615 184.615 200.000 M246.154 384.615 L 246.154 400.000 261.538 400.000 L 276.923 400.000 276.923 430.769 L 276.923 461.538 292.308 461.538 L 307.692 461.538 307.692 492.308 L 307.692 523.077 323.077 523.077 L 338.462 523.077 338.462 584.615 L 338.462 646.154 353.846 646.154 L 369.231 646.154 369.231 846.154 L 369.231 1046.154 353.846 1046.154 L 338.462 1046.154 338.462 1107.692 L 338.462 1169.231 323.077 1169.231 L 307.692 1169.231 307.692 1200.000 L 307.692 1230.769 292.308 1230.769 L 276.923 1230.769 276.923 1261.538 L 276.923 1292.308 261.538 1292.308 L 246.154 1292.308 246.154 1307.692 L 246.154 1323.077 200.000 1323.077 L 153.846 1323.077 153.846 1307.692 L 153.846 1292.308 138.462 1292.308 L 123.077 1292.308 123.077 1261.538 L 123.077 1230.769 107.692 1230.769 L 92.308 1230.769 92.308 1200.000 L 92.308 1169.231 76.923 1169.231 L 61.538 1169.231 61.538 1107.692 L 61.538 1046.154 46.154 1046.154 L 30.769 1046.154 30.769 846.154 L 30.769 646.154 46.154 646.154 L 61.538 646.154 61.538 584.615 L 61.538 523.077 76.923 523.077 L 92.308 523.077 92.308 492.308 L 92.308 461.538 107.692 461.538 L 123.077 461.538 123.077 430.769 L 123.077 400.000 138.462 400.000 L 153.846 400.000 153.846 384.615 L 153.846 369.231 200.000 369.231 L 246.154 369.231 246.154 384.615 M153.846 430.769 L 153.846 461.538 138.462 461.538 L 123.077 461.538 123.077 492.308 L 123.077 523.077 107.692 523.077 L 92.308 523.077 92.308 538.462 L 92.308 553.846 107.692 553.846 L 123.077 553.846 123.077 538.462 L 123.077 523.077 200.000 523.077 L 276.923 523.077 276.923 538.462 L 276.923 553.846 292.308 553.846 L 307.692 553.846 307.692 538.462 L 307.692 523.077 292.308 523.077 L 276.923 523.077 276.923 492.308 L 276.923 461.538 261.538 461.538 L 246.154 461.538 246.154 430.769 L 246.154 400.000 200.000 400.000 L 153.846 400.000 153.846 430.769 M184.615 584.615 L 184.615 615.385 153.846 615.385 L 123.077 615.385 123.077 630.769 L 123.077 646.154 153.846 646.154 L 184.615 646.154 184.615 692.308 L 184.615 738.462 153.846 738.462 L 123.077 738.462 123.077 753.846 L 123.077 769.231 153.846 769.231 L 184.615 769.231 184.615 830.769 L 184.615 892.308 200.000 892.308 L 215.385 892.308 215.385 830.769 L 215.385 769.231 246.154 769.231 L 276.923 769.231 276.923 753.846 L 276.923 738.462 246.154 738.462 L 215.385 738.462 215.385 692.308 L 215.385 646.154 246.154 646.154 L 276.923 646.154 276.923 630.769 L 276.923 615.385 246.154 615.385 L 215.385 615.385 215.385 584.615 L 215.385 553.846 200.000 553.846 L 184.615 553.846 184.615 584.615 M61.538 846.154 L 61.538 1046.154 76.923 1046.154 L 92.308 1046.154 92.308 1107.692 L 92.308 1169.231 107.692 1169.231 L 123.077 1169.231 123.077 1200.000 L 123.077 1230.769 138.462 1230.769 L 153.846 1230.769 153.846 1200.000 L 153.846 1169.231 169.231 1169.231 L 184.615 1169.231 184.615 1215.385 L 184.615 1261.538 169.231 1261.538 L 153.846 1261.538 153.846 1276.923 L 153.846 1292.308 169.231 1292.308 L 184.615 1292.308 184.615 1276.923 L 184.615 1261.538 200.000 1261.538 L 215.385 1261.538 215.385 1276.923 L 215.385 1292.308 230.769 1292.308 L 246.154 1292.308 246.154 1276.923 L 246.154 1261.538 230.769 1261.538 L 215.385 1261.538 215.385 1215.385 L 215.385 1169.231 230.769 1169.231 L 246.154 1169.231 246.154 1200.000 L 246.154 1230.769 261.538 1230.769 L 276.923 1230.769 276.923 1200.000 L 276.923 1169.231 292.308 1169.231 L 307.692 1169.231 307.692 1107.692 L 307.692 1046.154 323.077 1046.154 L 338.462 1046.154 338.462 846.154 L 338.462 646.154 323.077 646.154 L 307.692 646.154 307.692 738.462 L 307.692 830.769 292.308 830.769 L 276.923 830.769 276.923 876.923 L 276.923 923.077 200.000 923.077 L 123.077 923.077 123.077 876.923 L 123.077 830.769 107.692 830.769 L 92.308 830.769 92.308 738.462 L 92.308 646.154 76.923 646.154 L 61.538 646.154 61.538 846.154 M215.385 1153.846 L 215.385 1169.231 200.000 1169.231 L 184.615 1169.231 184.615 1153.846 L 184.615 1138.462 200.000 1138.462 L 215.385 1138.462 215.385 1153.846 M276.923 1369.231 L 276.923 1384.615 292.308 1384.615 L 307.692 1384.615 307.692 1400.000 L 307.692 1415.385 292.308 1415.385 L 276.923 1415.385 276.923 1430.769 L 276.923 1446.154 200.000 1446.154 L 123.077 1446.154 123.077 1430.769 L 123.077 1415.385 107.692 1415.385 L 92.308 1415.385 92.308 1400.000 L 92.308 1384.615 107.692 1384.615 L 123.077 1384.615 123.077 1369.231 L 123.077 1353.846 200.000 1353.846 L 276.923 1353.846 276.923 1369.231 M123.077 1400.000 L 123.077 1415.385 200.000 1415.385 L 276.923 1415.385 276.923 1400.000 L 276.923 1384.615 200.000 1384.615 L 123.077 1384.615 123.077 1400.000 " stroke="none" fill="#5c5c5c" fill-rule="evenodd"/>
  </g>
</svg>