<svg id="svg" version="1.1" xmlns="http://www.w3.org/2000/svg" xmlns:xlink="http://www.w3.org/1999/xlink" width="400" height="738.4615384615386" viewBox="0, 0, 400,738.4615384615386"><g id="svgg"><path id="path0" d="M184.800 107.800 L 184.800 123.200 169.400 123.200 L 154.000 123.200 154.000 200.000 L 154.000 276.800 169.400 276.800 L 184.800 276.800 184.800 292.200 L 184.800 307.600 200.000 307.600 L 215.200 307.600 215.200 292.200 L 215.200 276.800 230.600 276.800 L 246.000 276.800 246.000 200.000 L 246.000 123.200 230.600 123.200 L 215.200 123.200 215.200 107.800 L 215.200 92.400 200.000 92.400 L 184.800 92.400 184.800 107.800 M215.200 200.000 L 215.200 276.800 200.000 276.800 L 184.800 276.800 184.800 200.000 L 184.800 123.200 200.000 123.200 L 215.200 123.200 215.200 200.000 M92.400 322.995 L 92.400 338.400 77.000 338.400 L 61.600 338.400 61.600 353.800 L 61.600 369.200 92.402 369.200 L 123.205 369.200 123.102 338.500 L 123.000 307.800 107.700 307.695 L 92.400 307.590 92.400 322.995 M277.067 307.867 C 276.920 308.013,276.800 321.873,276.800 338.667 L 276.800 369.200 307.600 369.200 L 338.400 369.200 338.400 353.800 L 338.400 338.400 323.000 338.400 L 307.600 338.400 307.600 323.000 L 307.600 307.600 292.467 307.600 C 284.143 307.600,277.213 307.720,277.067 307.867 M92.400 477.000 L 92.400 492.400 77.000 492.400 L 61.600 492.400 61.600 507.800 L 61.600 523.200 77.000 523.200 L 92.400 523.200 92.400 538.400 L 92.400 553.600 107.800 553.600 L 123.200 553.600 123.200 538.405 L 123.200 523.210 138.500 523.105 L 153.800 523.000 153.905 507.700 L 154.010 492.400 138.605 492.400 L 123.200 492.400 123.200 477.000 L 123.200 461.600 107.800 461.600 L 92.400 461.600 92.400 477.000 M276.800 477.000 L 276.800 492.400 261.395 492.400 L 245.990 492.400 246.095 507.700 L 246.200 523.000 261.500 523.105 L 276.800 523.210 276.800 538.405 L 276.800 553.600 292.200 553.600 L 307.600 553.600 307.600 538.400 L 307.600 523.200 323.000 523.200 L 338.400 523.200 338.400 507.800 L 338.400 492.400 323.000 492.400 L 307.600 492.400 307.600 477.000 L 307.600 461.600 292.200 461.600 L 276.800 461.600 276.800 477.000 M123.200 507.800 L 123.200 523.200 107.800 523.200 L 92.400 523.200 92.400 507.800 L 92.400 492.400 107.800 492.400 L 123.200 492.400 123.200 507.800 M307.600 507.800 L 307.600 523.200 292.200 523.200 L 276.800 523.200 276.800 507.800 L 276.800 492.400 292.200 492.400 L 307.600 492.400 307.600 507.800 M123.200 630.600 L 123.200 646.000 200.000 646.000 L 276.800 646.000 276.800 630.600 L 276.800 615.200 200.000 615.200 L 123.200 615.200 123.200 630.600 M123.200 692.200 L 123.200 707.600 200.000 707.600 L 276.800 707.600 276.800 692.200 L 276.800 676.800 200.000 676.800 L 123.200 676.800 123.200 692.200 " stroke="none" fill="#dcdcdc" fill-rule="evenodd"></path><path id="path1" d="M184.400 15.200 L 184.400 30.400 169.000 30.400 L 153.600 30.400 153.600 45.800 L 153.600 61.200 138.200 61.200 L 122.800 61.200 122.800 76.600 L 122.800 92.000 107.400 92.000 L 92.000 92.000 92.000 122.800 L 92.000 153.600 76.600 153.600 L 61.200 153.600 61.200 184.400 L 61.200 215.200 45.800 215.200 L 30.400 215.200 30.400 415.400 L 30.400 615.600 45.800 615.600 L 61.200 615.600 61.200 661.800 L 61.200 708.000 76.600 708.000 L 92.000 708.000 92.000 723.200 L 92.000 738.400 200.000 738.400 L 308.000 738.400 308.000 723.200 L 308.000 708.000 323.400 708.000 L 338.800 708.000 338.800 661.800 L 338.800 615.600 354.200 615.600 L 369.600 615.600 369.600 415.400 L 369.600 215.200 354.200 215.200 L 338.800 215.200 338.800 184.400 L 338.800 153.600 323.400 153.600 L 308.000 153.600 308.000 122.800 L 308.000 92.000 292.600 92.000 L 277.200 92.000 277.200 76.600 L 277.200 61.200 261.800 61.200 L 246.400 61.200 246.400 45.800 L 246.400 30.400 231.000 30.400 L 215.600 30.400 215.600 15.200 L 215.600 0.000 200.000 0.000 L 184.400 0.000 184.400 15.200 M215.200 107.800 L 215.200 123.200 230.600 123.200 L 246.000 123.200 246.000 200.000 L 246.000 276.800 230.600 276.800 L 215.200 276.800 215.200 292.200 L 215.200 307.600 200.000 307.600 L 184.800 307.600 184.800 292.200 L 184.800 276.800 169.400 276.800 L 154.000 276.800 154.000 200.000 L 154.000 123.200 169.400 123.200 L 184.800 123.200 184.800 107.800 L 184.800 92.400 200.000 92.400 L 215.200 92.400 215.200 107.800 M184.800 200.000 L 184.800 276.800 200.000 276.800 L 215.200 276.800 215.200 200.000 L 215.200 123.200 200.000 123.200 L 184.800 123.200 184.800 200.000 M123.102 338.500 L 123.205 369.200 92.402 369.200 L 61.600 369.200 61.600 353.800 L 61.600 338.400 77.000 338.400 L 92.400 338.400 92.400 322.995 L 92.400 307.590 107.700 307.695 L 123.000 307.800 123.102 338.500 M307.600 323.000 L 307.600 338.400 323.000 338.400 L 338.400 338.400 338.400 353.800 L 338.400 369.200 307.600 369.200 L 276.800 369.200 276.800 338.667 C 276.800 321.873,276.920 308.013,277.067 307.867 C 277.213 307.720,284.143 307.600,292.467 307.600 L 307.600 307.600 307.600 323.000 M123.200 477.000 L 123.200 492.400 138.605 492.400 L 154.010 492.400 153.905 507.700 L 153.800 523.000 138.500 523.105 L 123.200 523.210 123.200 538.405 L 123.200 553.600 107.800 553.600 L 92.400 553.600 92.400 538.400 L 92.400 523.200 77.000 523.200 L 61.600 523.200 61.600 507.800 L 61.600 492.400 77.000 492.400 L 92.400 492.400 92.400 477.000 L 92.400 461.600 107.800 461.600 L 123.200 461.600 123.200 477.000 M307.600 477.000 L 307.600 492.400 323.000 492.400 L 338.400 492.400 338.400 507.800 L 338.400 523.200 323.000 523.200 L 307.600 523.200 307.600 538.400 L 307.600 553.600 292.200 553.600 L 276.800 553.600 276.800 538.405 L 276.800 523.210 261.500 523.105 L 246.200 523.000 246.095 507.700 L 245.990 492.400 261.395 492.400 L 276.800 492.400 276.800 477.000 L 276.800 461.600 292.200 461.600 L 307.600 461.600 307.600 477.000 M92.400 507.800 L 92.400 523.200 107.800 523.200 L 123.200 523.200 123.200 507.800 L 123.200 492.400 107.800 492.400 L 92.400 492.400 92.400 507.800 M276.800 507.800 L 276.800 523.200 292.200 523.200 L 307.600 523.200 307.600 507.800 L 307.600 492.400 292.200 492.400 L 276.800 492.400 276.800 507.800 M276.800 630.600 L 276.800 646.000 200.000 646.000 L 123.200 646.000 123.200 630.600 L 123.200 615.200 200.000 615.200 L 276.800 615.200 276.800 630.600 M276.800 692.200 L 276.800 707.600 200.000 707.600 L 123.200 707.600 123.200 692.200 L 123.200 676.800 200.000 676.800 L 276.800 676.800 276.800 692.200 " stroke="none" fill="#5c5c5c" fill-rule="evenodd"></path></g></svg>