<?xml version="1.0" encoding="utf-8"?>
<svg viewBox="0 0 402.541 1305.858" xmlns="http://www.w3.org/2000/svg">
  <g id="svgg" style="" transform="matrix(1, 0, 0, 1.1764700412750244, 0, 0)">
    <path id="path0" d="M153.811 107.852 L 153.811 123.326 138.337 123.326 L 122.864 123.326 122.864 138.568 L 122.864 153.811 107.621 153.811 L 92.379 153.811 92.379 184.758 L 92.379 215.704 76.905 215.704 L 61.432 215.704 61.432 323.326 L 61.432 430.947 46.189 430.947 L 30.947 430.947 30.947 600.462 L 30.947 769.977 46.187 769.977 L 61.427 769.977 61.545 816.051 L 61.663 862.125 77.021 862.246 L 92.379 862.368 92.379 877.604 L 92.379 892.841 107.621 892.841 L 122.864 892.841 122.864 908.314 L 122.864 923.788 107.627 923.788 L 92.391 923.788 92.270 939.145 L 92.148 954.503 76.790 954.625 L 61.432 954.747 61.432 985.457 L 61.432 1016.166 76.905 1016.166 L 92.379 1016.166 92.379 1031.640 L 92.379 1047.113 200.000 1047.113 L 307.621 1047.113 307.621 1031.640 L 307.621 1016.166 323.095 1016.166 L 338.568 1016.166 338.568 985.457 L 338.568 954.747 323.210 954.625 L 307.852 954.503 307.730 939.145 L 307.609 923.788 292.373 923.788 L 277.136 923.788 277.136 908.314 L 277.136 892.841 292.379 892.841 L 307.621 892.841 307.621 877.604 L 307.621 862.368 322.979 862.246 L 338.337 862.125 338.455 816.051 L 338.573 769.977 353.813 769.977 L 369.053 769.977 369.053 600.462 L 369.053 430.947 353.811 430.947 L 338.568 430.947 338.568 323.326 L 338.568 215.704 323.095 215.704 L 307.621 215.704 307.621 184.758 L 307.621 153.811 292.379 153.811 L 277.136 153.811 277.136 138.568 L 277.136 123.326 261.663 123.326 L 246.189 123.326 246.189 107.852 L 246.189 92.379 200.000 92.379 L 153.811 92.379 153.811 107.852 M246.189 138.568 L 246.189 153.811 261.663 153.811 L 277.136 153.811 277.136 184.758 L 277.136 215.704 292.379 215.704 L 307.621 215.704 307.621 308.083 L 307.621 400.462 292.385 400.462 L 277.149 400.462 277.027 385.104 L 276.905 369.746 200.000 369.746 L 123.095 369.746 122.973 385.104 L 122.851 400.462 107.615 400.462 L 92.379 400.462 92.379 308.083 L 92.379 215.704 107.621 215.704 L 122.864 215.704 122.864 184.758 L 122.864 153.811 138.337 153.811 L 153.811 153.811 153.811 138.568 L 153.811 123.326 200.000 123.326 L 246.189 123.326 246.189 138.568 M246.189 415.704 L 246.189 430.947 276.905 430.947 L 307.621 430.947 307.621 446.420 L 307.621 461.894 323.095 461.894 L 338.568 461.894 338.568 615.935 L 338.568 769.977 323.095 769.977 L 307.621 769.977 307.621 816.166 L 307.621 862.356 292.379 862.356 L 277.136 862.356 277.136 877.598 L 277.136 892.841 261.663 892.841 L 246.189 892.841 246.189 908.314 L 246.189 923.788 200.000 923.788 L 153.811 923.788 153.811 908.314 L 153.811 892.841 138.337 892.841 L 122.864 892.841 122.864 877.598 L 122.864 862.356 107.621 862.356 L 92.379 862.356 92.379 816.166 L 92.379 769.977 76.905 769.977 L 61.432 769.977 61.432 615.935 L 61.432 461.894 76.905 461.894 L 92.379 461.894 92.379 446.420 L 92.379 430.947 123.095 430.947 L 153.811 430.947 153.811 415.704 L 153.811 400.462 200.000 400.462 L 246.189 400.462 246.189 415.704 M92.379 584.988 L 92.379 615.704 123.095 615.704 L 153.811 615.704 153.811 584.988 L 153.811 554.273 123.095 554.273 L 92.379 554.273 92.379 584.988 M246.189 584.988 L 246.189 615.704 276.905 615.704 L 307.621 615.704 307.621 584.988 L 307.621 554.273 276.905 554.273 L 246.189 554.273 246.189 584.988 " stroke="none" fill="#dcdcdc" fill-rule="evenodd"/>
    <path id="path1" d="M153.349 15.242 L 153.349 30.485 122.633 30.485 L 91.917 30.485 91.917 45.958 L 91.917 61.432 76.674 61.432 L 61.432 61.432 61.432 76.674 L 61.432 91.917 45.958 91.917 L 30.485 91.917 30.485 122.864 L 30.485 153.811 15.242 153.811 L 0.000 153.811 0.000 585.219 L 0.000 1016.628 15.242 1016.628 L 30.485 1016.628 30.485 1062.587 L 30.485 1108.545 200.000 1108.545 L 369.515 1108.545 369.515 1062.587 L 369.515 1016.628 384.758 1016.628 L 400.000 1016.628 400.000 585.219 L 400.000 153.811 384.758 153.811 L 369.515 153.811 369.515 122.864 L 369.515 91.917 354.042 91.917 L 338.568 91.917 338.568 76.674 L 338.568 61.432 323.326 61.432 L 308.083 61.432 308.083 45.958 L 308.083 30.485 277.367 30.485 L 246.651 30.485 246.651 15.242 L 246.651 0.000 200.000 0.000 L 153.349 0.000 153.349 15.242 M246.189 107.852 L 246.189 123.326 261.663 123.326 L 277.136 123.326 277.136 138.568 L 277.136 153.811 292.379 153.811 L 307.621 153.811 307.621 184.758 L 307.621 215.704 323.095 215.704 L 338.568 215.704 338.568 323.326 L 338.568 430.947 353.811 430.947 L 369.053 430.947 369.053 600.462 L 369.053 769.977 353.813 769.977 L 338.573 769.977 338.455 816.051 L 338.337 862.125 322.979 862.246 L 307.621 862.368 307.621 877.604 L 307.621 892.841 292.379 892.841 L 277.136 892.841 277.136 908.314 L 277.136 923.788 292.373 923.788 L 307.609 923.788 307.730 939.145 L 307.852 954.503 323.210 954.625 L 338.568 954.747 338.568 985.457 L 338.568 1016.166 323.095 1016.166 L 307.621 1016.166 307.621 1031.640 L 307.621 1047.113 200.000 1047.113 L 92.379 1047.113 92.379 1031.640 L 92.379 1016.166 76.905 1016.166 L 61.432 1016.166 61.432 985.457 L 61.432 954.747 76.790 954.625 L 92.148 954.503 92.270 939.145 L 92.391 923.788 107.627 923.788 L 122.864 923.788 122.864 908.314 L 122.864 892.841 107.621 892.841 L 92.379 892.841 92.379 877.604 L 92.379 862.368 77.021 862.246 L 61.663 862.125 61.545 816.051 L 61.427 769.977 46.187 769.977 L 30.947 769.977 30.947 600.462 L 30.947 430.947 46.189 430.947 L 61.432 430.947 61.432 323.326 L 61.432 215.704 76.905 215.704 L 92.379 215.704 92.379 184.758 L 92.379 153.811 107.621 153.811 L 122.864 153.811 122.864 138.568 L 122.864 123.326 138.337 123.326 L 153.811 123.326 153.811 107.852 L 153.811 92.379 200.000 92.379 L 246.189 92.379 246.189 107.852 M153.811 138.568 L 153.811 153.811 138.337 153.811 L 122.864 153.811 122.864 184.758 L 122.864 215.704 107.621 215.704 L 92.379 215.704 92.379 308.083 L 92.379 400.462 107.615 400.462 L 122.851 400.462 122.973 385.104 L 123.095 369.746 200.000 369.746 L 276.905 369.746 277.027 385.104 L 277.149 400.462 292.385 400.462 L 307.621 400.462 307.621 308.083 L 307.621 215.704 292.379 215.704 L 277.136 215.704 277.136 184.758 L 277.136 153.811 261.663 153.811 L 246.189 153.811 246.189 138.568 L 246.189 123.326 200.000 123.326 L 153.811 123.326 153.811 138.568 M153.811 415.704 L 153.811 430.947 123.095 430.947 L 92.379 430.947 92.379 446.420 L 92.379 461.894 76.905 461.894 L 61.432 461.894 61.432 615.935 L 61.432 769.977 76.905 769.977 L 92.379 769.977 92.379 816.166 L 92.379 862.356 107.621 862.356 L 122.864 862.356 122.864 877.598 L 122.864 892.841 138.337 892.841 L 153.811 892.841 153.811 908.314 L 153.811 923.788 200.000 923.788 L 246.189 923.788 246.189 908.314 L 246.189 892.841 261.663 892.841 L 277.136 892.841 277.136 877.598 L 277.136 862.356 292.379 862.356 L 307.621 862.356 307.621 816.166 L 307.621 769.977 323.095 769.977 L 338.568 769.977 338.568 615.935 L 338.568 461.894 323.095 461.894 L 307.621 461.894 307.621 446.420 L 307.621 430.947 276.905 430.947 L 246.189 430.947 246.189 415.704 L 246.189 400.462 200.000 400.462 L 153.811 400.462 153.811 415.704 M153.811 584.988 L 153.811 615.704 123.095 615.704 L 92.379 615.704 92.379 584.988 L 92.379 554.273 123.095 554.273 L 153.811 554.273 153.811 584.988 M307.621 584.988 L 307.621 615.704 276.905 615.704 L 246.189 615.704 246.189 584.988 L 246.189 554.273 276.905 554.273 L 307.621 554.273 307.621 584.988 " stroke="none" fill="#5c5c5c" fill-rule="evenodd"/>
  </g>
</svg>