<?xml version="1.0" encoding="utf-8"?>
<svg viewBox="0 0 401.27 1321.101" xmlns="http://www.w3.org/2000/svg">
  <g id="svgg">
    <path id="path0" d="M 123.173 71.558 C 123.003 71.763 122.864 80.097 122.864 90.084 L 122.864 108.238 L 107.621 108.238 L 92.379 108.238 L 92.379 145.011 L 92.379 181.782 L 107.615 181.782 L 122.851 181.782 L 122.973 200.167 L 123.095 218.555 L 200 218.555 L 276.905 218.555 L 277.027 200.167 L 277.149 181.782 L 292.385 181.782 L 307.621 181.782 L 307.621 145.011 L 307.621 108.238 L 292.385 108.238 L 277.149 108.238 L 277.027 89.852 L 276.905 71.468 L 200.194 71.327 C 158.002 71.251 123.343 71.353 123.173 71.558 M 184.758 421.488 L 184.758 440.012 L 169.284 440.012 L 153.811 440.012 L 153.811 458.535 L 153.811 477.06 L 169.284 477.06 L 184.758 477.06 L 184.758 495.307 L 184.758 513.556 L 200 513.556 L 215.242 513.556 L 215.242 495.307 L 215.242 477.06 L 230.716 477.06 L 246.189 477.06 L 246.189 458.535 L 246.189 440.012 L 230.716 440.012 L 215.242 440.012 L 215.242 421.488 L 215.242 402.965 L 200 402.965 L 184.758 402.965 L 184.758 421.488 M 215.242 458.535 L 215.242 477.06 L 200 477.06 L 184.758 477.06 L 184.758 458.535 L 184.758 440.012 L 200 440.012 L 215.242 440.012 L 215.242 458.535 M 184.758 827.082 L 184.758 845.329 L 169.284 845.329 L 153.811 845.329 L 153.811 863.854 L 153.811 882.377 L 169.284 882.377 L 184.758 882.377 L 184.758 900.9 L 184.758 919.425 L 200 919.425 L 215.242 919.425 L 215.242 900.9 L 215.242 882.377 L 230.716 882.377 L 246.189 882.377 L 246.189 863.854 L 246.189 845.329 L 230.716 845.329 L 215.242 845.329 L 215.242 827.082 L 215.242 808.835 L 200 808.835 L 184.758 808.835 L 184.758 827.082 M 215.242 863.854 L 215.242 882.377 L 200 882.377 L 184.758 882.377 L 184.758 863.854 L 184.758 845.329 L 200 845.329 L 215.242 845.329 L 215.242 863.854" stroke="none" fill="#dcdcdc" fill-rule="evenodd" style=""/>
    <path id="path1" d="M 91.917 18.122 L 91.917 36.246 L 76.674 36.246 L 61.432 36.246 L 61.432 72.767 L 61.432 109.289 L 45.958 109.289 L 30.485 109.289 L 30.485 146.085 L 30.485 182.88 L 15.242 182.88 L 0 182.88 L 0 219.675 L 0 256.47 L 15.242 256.47 L 30.485 256.47 L 30.485 274.869 L 30.485 293.267 L 45.958 293.267 L 61.432 293.267 L 61.432 311.115 L 61.432 328.963 L 45.958 328.963 L 30.485 328.963 L 30.485 347.362 L 30.485 365.76 L 15.242 365.76 L 0 365.76 L 0 695.547 L 0 1025.335 L 15.242 1025.335 L 30.485 1025.335 L 30.485 1043.733 L 30.485 1062.131 L 76.674 1062.131 L 122.864 1062.131 L 122.864 1079.979 L 122.864 1097.828 L 92.148 1097.828 L 61.432 1097.828 L 61.432 1116.226 L 61.432 1134.624 L 30.716 1134.624 L 0 1134.624 L 0 1171.693 L 0 1208.764 L 30.716 1208.764 L 61.432 1208.764 L 61.432 1226.887 L 61.432 1245.011 L 107.39 1245.011 L 153.349 1245.011 L 153.349 1263.409 L 153.349 1281.807 L 168.822 1281.807 L 184.296 1281.807 L 184.296 1299.929 L 184.296 1318.053 L 200 1318.053 L 215.704 1318.053 L 215.704 1299.929 L 215.704 1281.807 L 231.178 1281.807 L 246.651 1281.807 L 246.651 1263.409 L 246.651 1245.011 L 261.894 1245.011 L 277.136 1245.011 L 336.84 1243.503 L 338.568 1208.764 L 400 1208.764 L 400 1171.693 L 400 1134.624 L 369.284 1134.624 L 338.568 1134.624 L 338.568 1116.226 L 338.568 1097.828 L 307.852 1097.828 L 277.136 1097.828 L 277.136 1079.979 L 277.136 1062.131 L 323.326 1062.131 L 369.515 1062.131 L 369.515 1043.733 L 369.515 1025.335 L 384.758 1025.335 L 400 1025.335 L 400 695.547 L 400 365.76 L 384.758 365.76 L 369.515 365.76 L 369.515 347.362 L 369.515 328.963 L 354.042 328.963 L 338.568 328.963 L 338.568 311.115 L 338.568 293.267 L 354.042 293.267 L 369.515 293.267 L 369.515 274.869 L 369.515 256.47 L 384.758 256.47 L 400 256.47 L 400 219.675 L 400 182.88 L 384.758 182.88 L 369.515 182.88 L 369.515 146.085 L 369.515 109.289 L 354.042 109.289 L 338.568 109.289 L 338.568 72.767 L 338.568 36.246 L 323.326 36.246 L 308.083 36.246 L 308.083 18.122 L 308.083 0 L 200 0 L 91.917 0 L 91.917 18.122 M 277.027 91.578 L 277.149 109.839 L 292.385 109.839 L 307.621 109.839 L 307.621 146.359 L 307.621 182.88 L 292.385 182.88 L 277.149 182.88 L 277.027 201.141 L 276.905 219.402 L 200 219.402 L 123.095 219.402 L 122.973 201.141 L 122.851 182.88 L 107.615 182.88 L 92.379 182.88 L 92.379 146.359 L 92.379 109.839 L 107.621 109.839 L 122.864 109.839 L 122.864 91.805 C 122.864 81.888 123.003 73.609 123.173 73.405 C 123.343 73.204 158.002 73.102 200.194 73.178 L 276.905 73.316 L 277.027 91.578 M 215.242 420.953 L 215.242 439.351 L 230.716 439.351 L 246.189 439.351 L 246.189 457.748 L 246.189 476.147 L 230.716 476.147 L 215.242 476.147 L 215.242 494.269 L 215.242 512.393 L 200 512.393 L 184.758 512.393 L 184.758 494.269 L 184.758 476.147 L 169.284 476.147 L 153.811 476.147 L 153.811 457.748 L 153.811 439.351 L 169.284 439.351 L 184.758 439.351 L 184.758 420.953 L 184.758 402.555 L 200 402.555 L 215.242 402.555 L 215.242 420.953 M 184.758 457.748 L 184.758 476.147 L 200 476.147 L 215.242 476.147 L 215.242 457.748 L 215.242 439.351 L 200 439.351 L 184.758 439.351 L 184.758 457.748 M 215.242 823.783 L 215.242 841.906 L 230.716 841.906 L 246.189 841.906 L 246.189 860.305 L 246.189 878.701 L 230.716 878.701 L 215.242 878.701 L 215.242 897.099 L 215.242 915.498 L 200 915.498 L 184.758 915.498 L 184.758 897.099 L 184.758 878.701 L 169.284 878.701 L 153.811 878.701 L 153.811 860.305 L 153.811 841.906 L 169.284 841.906 L 184.758 841.906 L 184.758 823.783 L 184.758 805.66 L 200 805.66 L 215.242 805.66 L 215.242 823.783 M 184.758 860.305 L 184.758 878.701 L 200 878.701 L 215.242 878.701 L 215.242 860.305 L 215.242 841.906 L 200 841.906 L 184.758 841.906 L 184.758 860.305" stroke="none" fill="#5c5c5c" fill-rule="evenodd" style=""/>
  </g>
</svg>