<svg version="1.2" xmlns="http://www.w3.org/2000/svg" viewBox="0 0 429 1980" width="429" height="1980">
	<title>pixil-frame-0 (1)</title>
	<style>
		.s0 { fill: #5c5c5c } 
		.s1 { fill: #dbdbdb } 
	</style>
	<g id="Background">
		<path id="Path 0" class="s0" d="m165 16.5v16.5h-33v33h-33v33h-33v66h-33v66h-33v1650h33v66h33v33h297v-33h33v-66h33v-1650h-33v-66h-33v-66h-33v-33h-33v-33h-33v-33h-99z"/>
		<path id="Path 1" class="s1" d="m198 66v33h33v-66h-33zm-66 49.5v16.5h33v-33h-33zm132 0v16.5h33v-33h-33zm-165 66v16.5h33v-33h-33zm66 0v16.5h99v-33h-99zm132 0v16.5h33v-33h-33zm-264 165v49.5h66v-66h-33v-33h-33zm330-33v16.5h-33v66h66v-99h-33zm-231 115.5v33h165v-66h-165zm0 82.5v16.5h-33v297h-33v-66h-33v825h66v33h66v-33h99v33h66v-33h66v-825h-33v66h-33v-297h-33v-33h-33v33h33v33h-165v-33h33v-33h-33zm-33 1204.5v66h231v-132h-231zm-33 148.5v16.5h33v66h33v-66h-33v-33h-33zm264 0v16.5h-33v66h33v-66h33v-33h-33z"/>
		<path id="Path 2" class="s0" d="m132 627v33h165v-66h-165zm0 99v33h165v-66h-165zm0 82.5v16.5h165v-33h-165zm-66 99v49.5h33v-33h66v33h99v-33h66v33h33v-99h-297zm0 132v49.5h33v-99h-33zm99 0v49.5h99v-99h-99zm165 0v49.5h33v-99h-33zm-264 148.5v66h33v-132h-33zm99 0v66h99v-132h-99zm165 0v66h33v-132h-33zm-264 165v66h33v-132h-33zm99 0v66h99v-132h-99zm165 0v66h33v-132h-33zm-264 148.5v49.5h33v-99h-33zm99 0v49.5h99v-99h-99zm165 0v49.5h33v-99h-33zm-198 214.5v33h165v-66h-165z"/>
	</g>
</svg>