<svg id="svg" version="1.1" xmlns="http://www.w3.org/2000/svg" xmlns:xlink="http://www.w3.org/1999/xlink" width="400" height="1107.6923076923076" viewBox="0, 0, 400,1107.6923076923076"><g id="svgg"><path id="path0" d="M123.173 61.738 C 123.003 61.909,122.864 68.872,122.864 77.213 L 122.864 92.379 107.621 92.379 L 92.379 92.379 92.379 123.095 L 92.379 153.811 107.615 153.811 L 122.851 153.811 122.973 169.169 L 123.095 184.527 200.000 184.527 L 276.905 184.527 277.027 169.169 L 277.149 153.811 292.385 153.811 L 307.621 153.811 307.621 123.095 L 307.621 92.379 292.385 92.379 L 277.149 92.379 277.027 77.021 L 276.905 61.663 200.194 61.546 C 158.002 61.482,123.343 61.568,123.173 61.738 M184.758 354.042 L 184.758 369.515 169.284 369.515 L 153.811 369.515 153.811 384.988 L 153.811 400.462 169.284 400.462 L 184.758 400.462 184.758 415.704 L 184.758 430.947 200.000 430.947 L 215.242 430.947 215.242 415.704 L 215.242 400.462 230.716 400.462 L 246.189 400.462 246.189 384.988 L 246.189 369.515 230.716 369.515 L 215.242 369.515 215.242 354.042 L 215.242 338.568 200.000 338.568 L 184.758 338.568 184.758 354.042 M215.242 384.988 L 215.242 400.462 200.000 400.462 L 184.758 400.462 184.758 384.988 L 184.758 369.515 200.000 369.515 L 215.242 369.515 215.242 384.988 M184.758 692.841 L 184.758 708.083 169.284 708.083 L 153.811 708.083 153.811 723.557 L 153.811 739.030 169.284 739.030 L 184.758 739.030 184.758 754.503 L 184.758 769.977 200.000 769.977 L 215.242 769.977 215.242 754.503 L 215.242 739.030 230.716 739.030 L 246.189 739.030 246.189 723.557 L 246.189 708.083 230.716 708.083 L 215.242 708.083 215.242 692.841 L 215.242 677.598 200.000 677.598 L 184.758 677.598 184.758 692.841 M215.242 723.557 L 215.242 739.030 200.000 739.030 L 184.758 739.030 184.758 723.557 L 184.758 708.083 200.000 708.083 L 215.242 708.083 215.242 723.557 " stroke="none" fill="#dcdcdc" fill-rule="evenodd"></path><path id="path1" d="M91.917 15.242 L 91.917 30.485 76.674 30.485 L 61.432 30.485 61.432 61.201 L 61.432 91.917 45.958 91.917 L 30.485 91.917 30.485 122.864 L 30.485 153.811 15.242 153.811 L 0.000 153.811 0.000 184.758 L 0.000 215.704 15.242 215.704 L 30.485 215.704 30.485 231.178 L 30.485 246.651 45.958 246.651 L 61.432 246.651 61.432 261.663 L 61.432 276.674 45.958 276.674 L 30.485 276.674 30.485 292.148 L 30.485 307.621 15.242 307.621 L 0.000 307.621 0.000 584.988 L 0.000 862.356 15.242 862.356 L 30.485 862.356 30.485 877.829 L 30.485 893.303 76.674 893.303 L 122.864 893.303 122.864 908.314 L 122.864 923.326 92.148 923.326 L 61.432 923.326 61.432 938.799 L 61.432 954.273 30.716 954.273 L 0.000 954.273 0.000 985.450 L 0.000 1016.628 30.716 1016.628 L 61.432 1016.628 61.432 1031.871 L 61.432 1047.113 107.390 1047.113 L 153.349 1047.113 153.349 1062.587 L 153.349 1078.060 168.822 1078.060 L 184.296 1078.060 184.296 1093.303 L 184.296 1108.545 200.000 1108.545 L 215.704 1108.545 215.704 1093.303 L 215.704 1078.060 231.178 1078.060 L 246.651 1078.060 246.651 1062.587 L 246.651 1047.113 261.894 1047.113 L 277.136 1047.113 277.136 1031.871 L 277.136 1016.628 338.568 1016.628 L 400.000 1016.628 400.000 985.450 L 400.000 954.273 369.284 954.273 L 338.568 954.273 338.568 938.799 L 338.568 923.326 307.852 923.326 L 277.136 923.326 277.136 908.314 L 277.136 893.303 323.326 893.303 L 369.515 893.303 369.515 877.829 L 369.515 862.356 384.758 862.356 L 400.000 862.356 400.000 584.988 L 400.000 307.621 384.758 307.621 L 369.515 307.621 369.515 292.148 L 369.515 276.674 354.042 276.674 L 338.568 276.674 338.568 261.663 L 338.568 246.651 354.042 246.651 L 369.515 246.651 369.515 231.178 L 369.515 215.704 384.758 215.704 L 400.000 215.704 400.000 184.758 L 400.000 153.811 384.758 153.811 L 369.515 153.811 369.515 122.864 L 369.515 91.917 354.042 91.917 L 338.568 91.917 338.568 61.201 L 338.568 30.485 323.326 30.485 L 308.083 30.485 308.083 15.242 L 308.083 0.000 200.000 0.000 L 91.917 0.000 91.917 15.242 M277.027 77.021 L 277.149 92.379 292.385 92.379 L 307.621 92.379 307.621 123.095 L 307.621 153.811 292.385 153.811 L 277.149 153.811 277.027 169.169 L 276.905 184.527 200.000 184.527 L 123.095 184.527 122.973 169.169 L 122.851 153.811 107.615 153.811 L 92.379 153.811 92.379 123.095 L 92.379 92.379 107.621 92.379 L 122.864 92.379 122.864 77.213 C 122.864 68.872,123.003 61.909,123.173 61.738 C 123.343 61.568,158.002 61.482,200.194 61.546 L 276.905 61.663 277.027 77.021 M215.242 354.042 L 215.242 369.515 230.716 369.515 L 246.189 369.515 246.189 384.988 L 246.189 400.462 230.716 400.462 L 215.242 400.462 215.242 415.704 L 215.242 430.947 200.000 430.947 L 184.758 430.947 184.758 415.704 L 184.758 400.462 169.284 400.462 L 153.811 400.462 153.811 384.988 L 153.811 369.515 169.284 369.515 L 184.758 369.515 184.758 354.042 L 184.758 338.568 200.000 338.568 L 215.242 338.568 215.242 354.042 M184.758 384.988 L 184.758 400.462 200.000 400.462 L 215.242 400.462 215.242 384.988 L 215.242 369.515 200.000 369.515 L 184.758 369.515 184.758 384.988 M215.242 692.841 L 215.242 708.083 230.716 708.083 L 246.189 708.083 246.189 723.557 L 246.189 739.030 230.716 739.030 L 215.242 739.030 215.242 754.503 L 215.242 769.977 200.000 769.977 L 184.758 769.977 184.758 754.503 L 184.758 739.030 169.284 739.030 L 153.811 739.030 153.811 723.557 L 153.811 708.083 169.284 708.083 L 184.758 708.083 184.758 692.841 L 184.758 677.598 200.000 677.598 L 215.242 677.598 215.242 692.841 M184.758 723.557 L 184.758 739.030 200.000 739.030 L 215.242 739.030 215.242 723.557 L 215.242 708.083 200.000 708.083 L 184.758 708.083 184.758 723.557 " stroke="none" fill="#5c5c5c" fill-rule="evenodd"></path></g></svg>